<svg id="Layer_1" data-name="Layer 1" xmlns="http://www.w3.org/2000/svg" viewBox="0 0 76.8 65.47"><defs><style>.cls-1{fill:#0079ac;}.cls-2{fill:#00000c;}.cls-3{fill:#34328f;}.cls-4{fill:#00a7dd;}</style></defs><title>d-meds-logo</title><rect class="cls-1" x="45.33" y="39.03" width="16.37" height="13.85"/><rect class="cls-1" x="15.11" y="12.59" width="16.37" height="13.85"/><polygon class="cls-2" points="31.48 56.66 31.48 40.29 15.11 40.29 15.11 25.18 31.48 25.18 31.48 8.81 46.59 8.81 46.59 25.18 61.7 25.18 61.7 40.29 46.59 40.29 46.59 56.66 31.48 56.66"/><polygon class="cls-3" points="61.7 12.59 61.7 12.59 61.7 12.49 61.7 0 46.56 0 16.37 0 16.37 12.59 45.33 12.59 45.33 25.18 46.59 25.18 46.59 26.44 61.41 26.44 61.7 26.44 61.7 52.88 76.8 52.88 76.8 26.02 76.8 12.59 61.7 12.59"/><polygon class="cls-4" points="31.48 52.88 31.48 39.03 15.11 39.03 15.11 12.59 0 12.59 0 39.92 0 52.88 14.99 52.88 15.11 52.88 15.11 52.99 15.11 65.47 30.49 65.47 61.7 65.47 61.7 52.88 31.48 52.88"/></svg>