<svg id="Layer_1" data-name="Layer 1" xmlns="http://www.w3.org/2000/svg" viewBox="0 0 80 80"><defs><style>.cls-1{fill:#fff;}</style></defs><title>scan</title><path class="cls-1" d="M76.19,26.43H53.62V3.81H76.19Zm-18-18.08V21.86H71.61V8.35Z"/><path class="cls-1" d="M3.81,76.19V53.62H26.43V76.19ZM8.38,58.13V71.61H21.87V58.13Z"/><path class="cls-1" d="M31,76.19V71.68h9V58.13H31V53.61H44.49V67.12h9v4.51h-9v4.56Z"/><path class="cls-1" d="M76.19,35.48H71.68V40H53.63V35.49h4.44V31H62.6v4.43h4.51V31h9.08Z"/><path class="cls-1" d="M58.1,76.19V62.67H71.63v4.44h-9v9.08Z"/><path class="cls-1" d="M76.19,49.05h-9V44.52h9Z"/><path class="cls-1" d="M67.14,76.19V71.67h9v4.52Z"/><path class="cls-1" d="M76.19,58.1H71.72V53.57h4.47Z"/><path class="cls-1" d="M26.38,26.4H3.85V3.86H26.38Zm-18-4.55H21.85V8.37H8.36Z"/><path class="cls-1" d="M31,49V44.57h-9V49H17.42V40h4.46V31h4.53v9h9v4.51H40V49Z"/><path class="cls-1" d="M49,12.83v4.53H44.55v4.5H40V17.41H31v-9h4.44v4.46Z"/><path class="cls-1" d="M44.54,31V26.46H49v9H31V31Z"/><path class="cls-1" d="M12.8,44.54H8.35V49H3.85V31H8.3v9h4.5Z"/><path class="cls-1" d="M58.12,49H53.61V44.57h9V58.06H58.12Z"/><path class="cls-1" d="M40,8.28V3.84h9V8.28Z"/><path class="cls-1" d="M44.56,40H49v9H44.56Z"/><path class="cls-1" d="M53.54,53.62v9H49.1v-9Z"/><path class="cls-1" d="M31,21.93h4.42v4.46H31Z"/><path class="cls-1" d="M17.35,31v4.43H12.9V31Z"/><path class="cls-1" d="M35.43,67.11H31V62.68h4.44Z"/><path class="cls-1" d="M62.67,12.89h4.44v4.44H62.67Z"/><path class="cls-1" d="M12.9,62.66h4.45v4.43H12.9Z"/><path class="cls-1" d="M12.9,12.89h4.44v4.43H12.9Z"/></svg>