<svg id="Layer_1" data-name="Layer 1" xmlns="http://www.w3.org/2000/svg" viewBox="0 0 80 80"><defs><style>.cls-1{fill:#fff;}</style></defs><title>qr-code</title><path class="cls-1" d="M32,24.23c0,2,0,3.94,0,5.91,0,1.26-.44,1.71-1.72,1.71H18.43c-1.31,0-1.74-.43-1.74-1.76V18.27c0-1.38.4-1.78,1.79-1.78H30.3c1.32,0,1.74.43,1.74,1.75C32.05,20.24,32,22.23,32,24.23ZM19.3,19.09V29.24H29.44V19.09Z"/><path class="cls-1" d="M47.35,24.23q0-3,0-6.06c0-1.23.44-1.68,1.66-1.68h12c1.19,0,1.64.45,1.65,1.63q0,6.06,0,12.12c0,1.15-.47,1.6-1.66,1.61H49c-1.18,0-1.64-.47-1.64-1.64C47.35,28.22,47.35,26.22,47.35,24.23Zm2.6,5H60.08V19.12H50Z"/><path class="cls-1" d="M32,54.78c0,2,0,4,0,6.06,0,1.22-.45,1.67-1.67,1.68h-12c-1.19,0-1.64-.46-1.64-1.64q0-6.06,0-12.12c0-1.14.47-1.59,1.6-1.6H30.48c1.08,0,1.55.47,1.56,1.55C32.05,50.74,32,52.76,32,54.78Zm-2.59-5H19.32V59.89H29.45Z"/><path class="cls-1" d="M67.82,11.38H53.74a1.22,1.22,0,0,1-1.25-1.22,1.24,1.24,0,0,1,1.24-1.32c.67,0,1.34,0,2,0H68.69c1.23,0,1.68.44,1.68,1.66q0,7.29,0,14.59a3,3,0,0,1-.05.67,1.21,1.21,0,0,1-1.33,1,1.16,1.16,0,0,1-1.15-1.15c0-.92,0-1.84,0-2.76V11.38Z"/><path class="cls-1" d="M67.82,67.64v-1q0-6.44,0-12.87c0-1.13.75-1.75,1.7-1.42a1.32,1.32,0,0,1,.85,1.43c0,1.92,0,3.84,0,5.77v8.9c0,1.27-.44,1.71-1.72,1.71H54.15a3.38,3.38,0,0,1-.45,0,1.24,1.24,0,0,1-1.21-1.27,1.19,1.19,0,0,1,1.28-1.26c2.57,0,5.13,0,7.7,0,1.82,0,3.64,0,5.46,0Z"/><path class="cls-1" d="M11.57,11.38v5c0,3,0,6,0,9a1.26,1.26,0,0,1-1.84,1.23A1.35,1.35,0,0,1,9,25.21V10.54c0-1.28.43-1.72,1.7-1.72H25.24a3.2,3.2,0,0,1,.44,0,1.23,1.23,0,0,1,1.22,1.33,1.17,1.17,0,0,1-1.26,1.2c-2,0-4.09,0-6.13,0H11.57Z"/><path class="cls-1" d="M11.57,67.64H24.91c.25,0,.5,0,.75,0a1.2,1.2,0,0,1,1.24,1.22,1.22,1.22,0,0,1-1.24,1.32c-.69,0-1.39,0-2.09,0H10.78C9.45,70.19,9,69.77,9,68.45V54a4.69,4.69,0,0,1,0-.53,1.25,1.25,0,0,1,1.3-1.18,1.19,1.19,0,0,1,1.23,1.23c0,1,0,2.1,0,3.14,0,3.35,0,6.69,0,10Z"/><path class="cls-1" d="M52.46,42.06V36.19c0-1.4.39-1.79,1.77-1.79.7,0,1.4,0,2.1,0a1.16,1.16,0,0,1,1.22,1.22,1.19,1.19,0,0,1-1.14,1.31c-.42,0-.85,0-1.39,0v.84c0,1.72,0,3.44,0,5.16,0,1.26-.41,1.66-1.64,1.67H49.91v3.31c0,1.45-.35,1.79-1.81,1.8-.68,0-1.35,0-2,0a1.21,1.21,0,0,1-1.26-1.21,1.26,1.26,0,0,1,1.23-1.33c.39,0,.79,0,1.3,0V44c0-1.53.36-1.89,1.9-1.89Z"/><path class="cls-1" d="M39.75,31.85c0,.17,0,.26,0,.35V37c.44,0,.85,0,1.26,0a1.27,1.27,0,1,1,0,2.54c-1.7,0-3.39,0-5.09,0a1.19,1.19,0,0,1-1.26-1.27A1.2,1.2,0,0,1,35.89,37c.39,0,.78,0,1.26,0V33.62c0-1,0-1.95,0-2.92a1.25,1.25,0,0,1,1.38-1.4c1.64,0,3.29,0,4.94,0a1.2,1.2,0,0,1,1.32,1.21,1.23,1.23,0,0,1-1.3,1.33c-1,0-2,0-2.92,0Z"/><path class="cls-1" d="M47.35,57.39c0,1.32,0,2.49,0,3.66,0,1-.45,1.45-1.41,1.46q-3.7,0-7.41,0a1.24,1.24,0,0,1-1.37-1.33c0-.75.52-1.21,1.4-1.21,1.79,0,3.59,0,5.38,0h.86V56.65c0-1.43.38-1.8,1.82-1.82.22,0,.44,0,.74,0,0-.4,0-.77,0-1.14a1.27,1.27,0,0,1,1.28-1.36,1.23,1.23,0,0,1,1.26,1.36c0,.75,0,1.49,0,2.24,0,1-.45,1.47-1.52,1.5Z"/><path class="cls-1" d="M29.49,42.06c0-1.3,0-2.47,0-3.64,0-.94.45-1.44,1.24-1.46s1.3.52,1.31,1.48c0,1.17,0,2.34,0,3.62h3.08c.3,0,.6,0,.9,0a1.24,1.24,0,0,1,1.11,1.29A1.18,1.18,0,0,1,36,44.59q-5.2,0-10.41,0a1.16,1.16,0,0,1-1.18-1.27,1.19,1.19,0,0,1,1.21-1.25c1,0,2,0,3,0Z"/><path class="cls-1" d="M39.7,52.31H37.14c0,.45,0,.87,0,1.28a1.21,1.21,0,0,1-1.33,1.22,1.19,1.19,0,0,1-1.21-1.25c0-.79,0-1.59,0-2.39A1.29,1.29,0,0,1,36,49.72c1.19,0,2.38,0,3.67,0,0-1.27,0-2.49,0-3.7a1.26,1.26,0,0,1,1.24-1.4,1.23,1.23,0,0,1,1.3,1.25q0,3.85,0,7.71A1.17,1.17,0,0,1,41,54.81a1.19,1.19,0,0,1-1.3-1.23C39.68,53.18,39.7,52.78,39.7,52.31Z"/><path class="cls-1" d="M60.15,49.72c-2.17,0-4.18,0-6.2,0a1.81,1.81,0,0,1-1.25-.59,1.2,1.2,0,0,1,1-1.91c2.62,0,5.24,0,7.85,0a1.18,1.18,0,0,1,1.18,1.3c0,1.69,0,3.39,0,5.08a1.27,1.27,0,1,1-2.53,0C60.13,52.28,60.15,51,60.15,49.72Z"/><path class="cls-1" d="M42.25,21.61v3.52c0,1.14-.44,1.59-1.58,1.6-1.52,0-3,0-4.56,0A1.53,1.53,0,0,1,35,26.36,2.13,2.13,0,0,1,34.7,25a1,1,0,0,1,1.1-.82c1.27,0,2.53,0,3.9,0V20.78c0-1.33.4-1.72,1.75-1.73.67,0,1.34,0,2,0a1.23,1.23,0,0,1,1.32,1.3,1.21,1.21,0,0,1-1.3,1.24C43.1,21.63,42.71,21.61,42.25,21.61Z"/><path class="cls-1" d="M19.29,37h3.56c1,0,1.49.45,1.49,1.27s-.53,1.27-1.49,1.27h-3.6v3a9.21,9.21,0,0,1,0,1A1.19,1.19,0,0,1,18,44.6a1.15,1.15,0,0,1-1.26-1,19.66,19.66,0,0,1-.06-2.17c0-1.84,0-3.69,0-5.53,0-1,.46-1.45,1.24-1.47a1.18,1.18,0,0,1,1.29,1.08C19.27,36,19.26,36.43,19.29,37Z"/><path class="cls-1" d="M55,60c0-1.33,0-2.52,0-3.72a1.27,1.27,0,1,1,2.54-.08c0,1.22,0,2.44,0,3.79h1.07c.92,0,1.84,0,2.77,0a1.17,1.17,0,0,1,1.25,1.2,1.22,1.22,0,0,1-1.21,1.33h-.08c-2.52,0-5,0-7.56,0a1.61,1.61,0,0,1-1.15-.64,1.21,1.21,0,0,1,1-1.86C54.06,59.94,54.49,60,55,60Z"/><path class="cls-1" d="M60.16,42.06c0-1.34,0-2.58,0-3.82A1.23,1.23,0,0,1,61.65,37a1.17,1.17,0,0,1,1,1.19c0,1.72,0,3.44,0,5.16a1.23,1.23,0,0,1-1.36,1.27c-.83,0-1.65,0-2.47,0a1.18,1.18,0,0,1-1.24-1.22,1.2,1.2,0,0,1,1.21-1.32C59.23,42,59.63,42.06,60.16,42.06Z"/><path class="cls-1" d="M47.35,36.94c0,.44,0,.89,0,1.34a1.26,1.26,0,0,1-2.51.09,26.72,26.72,0,0,1,0-2.83,1.19,1.19,0,0,1,1.32-1.13,1.17,1.17,0,0,1,1.19,1.18C47.37,36,47.35,36.49,47.35,36.94Z"/><path class="cls-1" d="M34.6,19.06c0-.45,0-.89,0-1.34a1.26,1.26,0,0,1,2.52,0c0,.9,0,1.79,0,2.69a1.27,1.27,0,0,1-2.53-.06c0-.42,0-.85,0-1.27Z"/><path class="cls-1" d="M21.81,24.09c-.08-2.24.23-2.56,2.5-2.48.42,0,.85,0,1.27,0a1.24,1.24,0,0,1,1.34,1.3c0,.82,0,1.65,0,2.47a1.3,1.3,0,0,1-1.41,1.33c-.72,0-1.45,0-2.17,0-1.05,0-1.49-.47-1.52-1.51C21.81,24.84,21.82,24.47,21.81,24.09Z"/><path class="cls-1" d="M55,21.62c2.5,0,2.55.05,2.55,2.56s-.1,2.56-2.58,2.56-2.54-.13-2.54-2.55S52.55,21.62,55,21.62Z"/><path class="cls-1" d="M24.33,57.39c-2.3.09-2.6-.23-2.52-2.53,0-.38,0-.75,0-1.13a1.29,1.29,0,0,1,1.42-1.45q1.13,0,2.25,0a1.32,1.32,0,0,1,1.44,1.45c0,.67,0,1.35,0,2,0,1.19-.44,1.62-1.63,1.64Z"/></svg>