<svg id="Layer_1" data-name="Layer 1" xmlns="http://www.w3.org/2000/svg" viewBox="0 0 80 80"><defs><style>.cls-1{fill:#fff;}</style></defs><title>card-w</title><path class="cls-1" d="M78,62a2.37,2.37,0,0,1-2.44,1.32H3.81c-1.83,0-2.44-.6-2.44-2.4V18.14c0-1.78.61-2.4,2.36-2.4H75.66A2.32,2.32,0,0,1,78,17.05ZM5,19.37V59.62H74.38V19.37Z"/><path class="cls-1" d="M24.78,32.35H35c1.61,0,2.27.65,2.27,2.26v9.87c0,1.5-.69,2.18-2.2,2.18q-10.29,0-20.57,0c-1.56,0-2.23-.66-2.23-2.22V34.57c0-1.56.67-2.22,2.24-2.22ZM15.93,43H33.65V36H15.93Z"/><path class="cls-1" d="M57,30.87c-2.72,0-5.43,0-8.15,0a1.78,1.78,0,0,1-1.7-2.67,1.86,1.86,0,0,1,1.77-.91H64.7a5.32,5.32,0,0,1,.89,0,1.77,1.77,0,0,1,1.5,1.78,1.73,1.73,0,0,1-1.64,1.73c-1.12.05-2.25,0-3.37,0Z"/><path class="cls-1" d="M57,48.15c2.75,0,5.49,0,8.24,0a1.76,1.76,0,0,1,1.82,1.78,1.81,1.81,0,0,1-1.76,1.79c-.22,0-.45,0-.67,0H53.8c-1.69,0-3.39,0-5.08,0a1.78,1.78,0,0,1-1.81-1.57,1.76,1.76,0,0,1,1.16-1.89,3.75,3.75,0,0,1,1.11-.12H57Z"/><path class="cls-1" d="M57,41.3H49c-1.29,0-2.13-.71-2.13-1.8s.84-1.79,2.13-1.79H65c1.3,0,2.13.71,2.13,1.8S66.26,41.3,65,41.3Z"/></svg>